<svg xmlns="http://www.w3.org/2000/svg" viewBox="0 0 256 256">
  <defs>
    <linearGradient id="g" x1="20" y1="20" x2="236" y2="236" gradientUnits="userSpaceOnUse">
      <stop offset="0" stop-color="#4aa3ff"/>
      <stop offset="1" stop-color="#6b5cff"/>
    </linearGradient>
    <filter id="s" x="-20%" y="-20%" width="140%" height="140%">
      <feDropShadow dx="0" dy="10" stdDeviation="10" flood-color="#000" flood-opacity=".35"/>
    </filter>
  </defs>

  <rect x="18" y="18" width="220" height="220" rx="56" fill="rgba(255,255,255,.06)" stroke="rgba(255,255,255,.18)" stroke-width="2"/>
  <rect x="28" y="28" width="200" height="200" rx="50" fill="url(#g)" opacity=".16" />
  <g filter="url(#s)">
    <!-- stylized "VW" helper badge -->
    <circle cx="128" cy="116" r="54" fill="rgba(0,0,0,.22)" stroke="rgba(255,255,255,.22)" stroke-width="2"/>
    <path d="M90 92l18 56 20-56h12l-28 74h-8L78 92h12z" fill="#eaf0ff"/>
    <path d="M128 92h12l16 44 16-44h12l-28 74h-8l-20-52-20 52h-8l-28-74h12l16 44 16-44z" fill="#eaf0ff" opacity=".92"/>
    <!-- small "spark" -->
    <path d="M176 64l6 12 12 6-12 6-6 12-6-12-12-6 12-6 6-12z" fill="#eaf0ff" opacity=".9"/>
    <!-- helper wrench -->
    <path d="M170 162c6-6 14-8 21-6l-10 10 6 6 10-10c2 7 0 15-6 21l-18-18z" fill="#eaf0ff" opacity=".9"/>
    <rect x="138" y="160" width="36" height="10" rx="5" transform="rotate(45 156 165)" fill="#eaf0ff" opacity=".9"/>
  </g>

  <text x="128" y="214" text-anchor="middle" font-family="ui-sans-serif, system-ui" font-size="18" font-weight="800" fill="#eaf0ff" opacity=".92">
    VW Helfer
  </text>
</svg>
